# xmcd
#
# Track frame offsets: 
#        150
#        16920
#        34481
#        53102
#        75014
#        98076
#        115438
#        129240
#        147079
#        169772
#
# Disc length: 2413 seconds
#
# Revision: 2
# Processed by: cddbd v1.5.2PL0 Copyright (c) Steve Scherf et al.
# Submitted via: ExactAudioCopy v1.0b2
#
DISCID=75096b0a
DTITLE=Joss Stone - LP1
DYEAR=2011
DGENRE=Soul
TTITLE0=Newborn
TTITLE1=Karma
TTITLE2=Don't Start Lying To Me Now
TTITLE3=Last One To Know
TTITLE4=Drive All Night
TTITLE5=Cry Myself to Sleep
TTITLE6=Somehow
TTITLE7=Landlord
TTITLE8=Boat Yard
TTITLE9=Take Good Care
EXTD=YEAR: 2011
EXTT0=
EXTT1=
EXTT2=
EXTT3=
EXTT4=
EXTT5=
EXTT6=
EXTT7=
EXTT8=
EXTT9=
PLAYORDER=
